<svg width="80" height="80" viewBox="0 0 80 80" fill="none" xmlns="http://www.w3.org/2000/svg">
<circle cx="40" cy="40" r="40" fill="#C4C4C4"/>
<g clip-path="url(#clip0_1_95)">
<path d="M78.8035 49.6732C73.4591 71.1132 51.7369 84.1463 30.3276 78.8016C8.88695 73.4573 -4.14617 51.736 1.19852 30.327C6.54289 8.88696 28.2335 -4.14617 49.6741 1.19852C71.0835 6.51164 84.1482 28.2329 78.8035 49.6732Z" fill="url(#paint0_linear_1_95)"/>
<path d="M59.0448 35.0159C59.8261 29.7034 55.7948 26.8284 50.2323 24.9222L52.0448 17.7034L47.6698 16.6097L45.9198 23.6409C44.7636 23.3597 43.5761 23.0784 42.3886 22.8284L44.1385 15.7659L39.7636 14.6722L37.9823 21.8597C37.0135 21.6409 36.076 21.4222 35.1698 21.2034V21.1722L29.1073 19.6722L27.951 24.3597C27.951 24.3597 31.201 25.1097 31.1385 25.1409C32.9198 25.5784 33.2323 26.7659 33.1698 27.7034L31.1073 35.9222C31.2323 35.9534 31.3885 35.9847 31.576 36.0784C31.4198 36.0472 31.2635 36.0159 31.1073 35.9534L28.2323 47.4534C28.0135 47.9847 27.451 48.7972 26.2323 48.4847C26.2635 48.5472 23.0448 47.7034 23.0448 47.7034L20.8573 52.7347L26.576 54.1722C27.6385 54.4534 28.6698 54.7034 29.701 54.9847L27.8886 62.2659L32.2636 63.3597L34.076 56.1409C35.2635 56.4534 36.4511 56.7659 37.5761 57.0472L35.7948 64.2347L40.1698 65.3284L41.9823 58.0472C49.4823 59.4534 55.1073 58.8909 57.4511 52.1097C59.3573 46.6722 57.3573 43.5159 53.4198 41.4534C56.3261 40.7972 58.4823 38.8909 59.0448 35.0159ZM49.0136 49.0784C47.6698 54.5159 38.4823 51.5784 35.5135 50.8284L37.9198 41.1722C40.8886 41.9222 50.4511 43.3909 49.0136 49.0784ZM50.3885 34.9222C49.1385 39.8909 41.5136 37.3597 39.0448 36.7347L41.2323 27.9847C43.7011 28.6097 51.6698 29.7659 50.3885 34.9222Z" fill="white"/>
</g>
<defs>
<linearGradient id="paint0_linear_1_95" x1="39.9785" y1="-0.0190779" x2="39.9785" y2="79.992" gradientUnits="userSpaceOnUse">
<stop stop-color="#F9AA4B"/>
<stop offset="1" stop-color="#F7931A"/>
</linearGradient>
<clipPath id="clip0_1_95">
<rect width="80" height="80" fill="white"/>
</clipPath>
</defs>
</svg>
